#Comment line ignore any data following # character 
#Hierarchical Translation and Rotation (.htr) file 
[Header]	
#Header keywords are followed by a single value 
FileType HTR		#Single word string
DataType HTRS		#Translation followed by rotation and scale data
FileVersion 1		#integer
NumSegments 23		#integer
NumFrames 4		#integer
DataFrameRate 30		#integer, data frame rate in this file
EulerRotationOrder ZYX
CalibrationUnits mm
RotationUnits Degrees
GlobalAxisofGravity Y
BoneLengthAxis Y
ScaleFactor 1.00
[SegmentNames&Hierarchy]
#CHILD	PARENT
MASTER GLOBAL
weapon MASTER
arm_lock_bottom_part1 weapon
arm_lock_bottom_part2 weapon
arm_lock_bottom_part3 weapon
arm_lock_bottom_part4 weapon
arm_lock_top_part1 weapon
arm_lock_top_part2 weapon
arm_lock_top_part3 weapon
front_lower_left_part1 weapon
front_lower_right_part1 weapon
front_top_left_part weapon
front_top_right_part1 weapon
scope_part1 weapon
scope_part2 weapon
front_lower_left_part2 front_lower_left_part1
front_lower_left_part3 front_lower_left_part2
front_lower_right_part2 front_lower_right_part1
front_lower_right_part3 front_lower_right_part2
front_top_left_part2 front_top_left_part
front_top_left_part3 front_top_left_part2
front_top_right_part2 front_top_right_part1
front_top_right_part3 front_top_right_part2
[BasePosition]
#SegmentName Tx, Ty, Tz, Rx, Ry, Rz, BoneLength
MASTER 0.000000 0.000000 0.000000 -90.000000 0.000000 0.000000 10.000000 
weapon 0.000000 0.000000 0.000000 0.000000 0.000000 0.000000 10.000000 
arm_lock_bottom_part1 0.000000 0.000000 0.000000 0.000000 0.000000 0.000000 10.000000 
arm_lock_bottom_part2 0.000000 0.000000 0.000000 0.000000 0.000000 0.000000 10.000000 
arm_lock_bottom_part3 0.000000 0.000000 0.000000 0.000000 0.000000 0.000000 10.000000 
arm_lock_bottom_part4 0.000000 0.000000 0.000000 0.000000 0.000000 0.000000 10.000000 
arm_lock_top_part1 0.000000 0.000000 0.000000 0.000000 0.000000 0.000000 10.000000 
arm_lock_top_part2 0.000000 0.000000 0.000000 0.000000 0.000000 0.000000 10.000000 
arm_lock_top_part3 0.000000 0.000000 0.000000 0.000000 0.000000 0.000000 10.000000 
front_lower_left_part1 0.000000 0.000000 0.000000 0.000000 0.000000 0.000000 10.000000 
front_lower_right_part1 0.000000 0.000000 0.000000 0.000000 0.000000 0.000000 10.000000 
front_top_left_part 0.000000 0.000000 0.000000 0.000000 0.000000 0.000000 10.000000 
front_top_right_part1 0.000000 0.000000 0.000000 0.000000 0.000000 0.000000 10.000000 
scope_part1 0.000000 0.000000 0.000000 0.000000 0.000000 0.000000 10.000000 
scope_part2 0.000000 0.000000 0.000000 0.000000 0.000000 0.000000 10.000000 
front_lower_left_part2 0.000000 0.000000 0.000000 0.000000 0.000000 0.000000 10.000000 
front_lower_left_part3 0.000000 0.000000 0.000000 0.000000 0.000000 0.000000 10.000000 
front_lower_right_part2 0.000000 0.000000 0.000000 0.000000 0.000000 0.000000 10.000000 
front_lower_right_part3 0.000000 0.000000 0.000000 0.000000 0.000000 0.000000 10.000000 
front_top_left_part2 0.000000 0.000000 0.000000 0.000000 0.000000 0.000000 10.000000 
front_top_left_part3 0.000000 0.000000 0.000000 0.000000 0.000000 0.000000 10.000000 
front_top_right_part2 0.000000 0.000000 0.000000 0.000000 0.000000 0.000000 10.000000 
front_top_right_part3 0.000000 0.000000 0.000000 0.000000 0.000000 0.000000 10.000000 
#Beginning of Data. Separated by tabs
#Fr	Tx	Ty	Tz	Rx	Ry	Rz	SF
[MASTER]
57 0.000000 -0.000019 0.000002 0.002458 -0.000000 0.000000 0.000019
58 0.000000 -0.000019 0.000002 0.002458 -0.000000 0.000000 0.000019
59 0.000000 -0.000019 0.000002 0.002458 -0.000000 0.000000 0.000019
60 0.000000 -0.000019 0.000002 0.002458 -0.000000 0.000000 0.000019
[weapon]
57 10.182495 -168.978104 -13.084183 -0.002473 -0.000000 -0.000020 169.789505
58 10.182533 -168.977966 -13.084335 -0.002473 -0.000000 -0.000020 169.789383
59 10.182495 -168.977966 -13.084259 -0.002473 -0.000000 -0.000020 169.789383
60 10.182533 -168.978043 -13.084335 -0.002473 -0.000000 -0.000020 169.789459
[arm_lock_bottom_part1]
57 -48.820034 98.566185 -83.498901 179.998215 -0.001518 9.389182 138.096909
58 -48.820034 98.566185 -83.498901 179.998001 -4.900796 9.387951 138.096909
59 -48.820034 98.566185 -83.498901 179.998215 -0.001518 9.389182 138.096909
60 -48.820034 98.566185 -83.498901 179.998215 -0.001518 9.389182 138.096909
[arm_lock_bottom_part2]
57 -49.022778 58.781982 -78.526520 179.999649 -6.187047 6.577795 109.658417
58 -49.022778 58.781982 -78.526520 179.998245 -0.001562 6.578083 109.658417
59 -49.022778 58.781982 -78.526520 179.998245 -0.001562 6.578084 109.658417
60 -49.022778 58.781982 -78.526520 179.998245 -0.001562 6.578084 109.658417
[arm_lock_bottom_part3]
57 -51.266434 -16.798199 -66.920387 179.998291 -0.001596 4.325218 85.957924
58 -51.266434 -16.798199 -66.920387 179.998291 -0.001596 4.325218 85.957924
59 -51.266434 -16.798199 -66.920387 179.998291 -0.001596 4.325218 85.957924
60 -51.266434 -16.798199 -66.920387 179.998291 -0.001596 4.325218 85.957924
[arm_lock_bottom_part4]
57 -40.078083 -93.503029 -59.330029 -179.999222 -7.951346 1.320369 117.767235
58 -40.078083 -93.503029 -59.330029 -179.999222 -7.951346 1.320369 117.767235
59 -40.078083 -93.503029 -59.330029 -179.999222 -7.951346 1.320369 117.767235
60 -40.078083 -93.503029 -59.330029 -179.999222 -7.951346 1.320369 117.767235
[arm_lock_top_part1]
57 -47.532562 61.554470 78.379471 -0.001739 8.389205 -9.998509 110.415756
58 -47.532562 61.554470 78.379471 0.001509 0.001798 -10.001317 110.415756
59 -47.532562 61.554470 78.379471 0.001509 0.001798 -10.001317 110.415756
60 -47.532562 61.554470 78.379471 0.001509 0.001798 -10.001317 110.415756
[arm_lock_top_part2]
57 -45.622692 13.709888 63.393517 0.001544 0.001768 -7.724405 79.297722
58 -45.622692 13.709888 63.393517 0.001544 0.001768 -7.724405 79.297722
59 -45.622692 13.709888 63.393517 0.001544 0.001768 -7.724405 79.297722
60 -45.622692 13.709888 63.393517 0.001544 0.001768 -7.724405 79.297722
[arm_lock_top_part3]
57 -43.788521 -73.747162 72.061607 0.001593 0.001724 -4.534721 112.022110
58 -43.788521 -73.747162 72.061607 0.001593 0.001724 -4.534721 112.022110
59 -43.788521 -73.747162 72.061607 0.001593 0.001724 -4.534721 112.022110
60 -43.788521 -73.747162 72.061607 0.001593 0.001724 -4.534721 112.022110
[front_lower_left_part1]
57 -46.798580 475.070923 -43.538815 0.000000 0.000003 -0.000000 479.351746
58 -46.798580 475.070923 -43.538815 0.000000 0.000003 -0.000000 479.351746
59 -46.798580 475.070923 -43.538815 0.000000 0.000003 -0.000000 479.351746
60 -46.798580 475.070923 -43.538815 0.000000 0.000003 -0.000000 479.351746
[front_lower_right_part1]
57 26.433397 475.070923 -43.538826 0.000000 -0.000000 -0.000000 477.793640
58 26.433397 475.070923 -43.538826 0.000000 -0.000000 -0.000000 477.793640
59 26.433397 475.070923 -43.538826 0.000000 -0.000000 -0.000000 477.793640
60 26.433397 475.070923 -43.538826 0.000000 -0.000000 -0.000000 477.793640
[front_top_left_part]
57 -47.897255 494.788696 7.031011 -0.000000 0.000003 -0.000001 497.151367
58 -47.897255 494.788696 7.031011 -0.000000 0.000003 -0.000001 497.151367
59 -47.897255 494.788696 7.031011 -0.000000 0.000003 -0.000001 497.151367
60 -47.897255 494.788696 7.031011 -0.000000 0.000003 -0.000001 497.151367
[front_top_right_part1]
57 27.532097 494.788727 7.031008 0.000000 -0.000000 -0.000000 495.604004
58 27.532097 494.788727 7.031008 0.000000 -0.000000 -0.000000 495.604004
59 27.532097 494.788727 7.031008 0.000000 -0.000000 -0.000000 495.604004
60 27.532097 494.788727 7.031008 0.000000 -0.000000 -0.000000 495.604004
[scope_part1]
57 -10.754304 87.338959 156.453140 -17.890129 73.840752 -17.226072 179.503021
58 -10.754304 87.338959 156.453140 -21.419172 76.462585 -20.876837 179.503021
59 -10.754304 87.338959 156.453140 -26.577394 78.987083 -26.152285 179.503021
60 -10.754304 87.338959 156.453140 -34.614319 81.343124 -34.305695 179.503021
[scope_part2]
57 -10.754300 82.597374 156.860001 -150.680328 79.944389 -151.059631 177.603607
58 -10.754300 82.597374 156.860001 -157.806107 76.916290 -158.330597 177.603607
59 -10.754300 82.597374 156.860001 -162.119537 73.830368 -162.785645 177.603607
60 -10.754300 82.597374 156.860001 -165.023438 70.680847 -165.832260 177.603607
[front_lower_left_part2]
57 -55.193569 141.618454 32.268322 0.001886 0.001397 16.927948 155.381348
58 -55.193569 141.618454 32.268322 0.001886 0.001397 16.927948 155.381348
59 -55.193569 141.618454 32.268322 0.001886 0.001397 16.927948 155.381348
60 -55.193569 141.618454 32.268322 0.001886 0.001397 16.927948 155.381348
[front_lower_left_part3]
57 -10.943815 108.509422 -11.124855 29.345997 -22.917822 -1.512629 109.625839
58 -10.943815 108.509422 -11.124855 29.841002 -22.238155 -2.805607 109.625839
59 -10.943815 108.509422 -11.124855 30.306072 -21.573183 -4.040421 109.625839
60 -10.943815 108.509422 -11.124855 30.737583 -20.921526 -5.230307 109.625839
[front_lower_right_part2]
57 55.193596 141.618317 32.268330 0.001480 0.001822 -11.824665 155.381226
58 55.193596 141.618317 32.268330 0.001480 0.001822 -11.824665 155.381226
59 55.193596 141.618317 32.268330 0.001480 0.001822 -11.824665 155.381226
60 55.193596 141.618317 32.268330 0.001480 0.001822 -11.824665 155.381226
[front_lower_right_part3]
57 10.943837 108.509453 -11.124846 29.155052 23.170950 1.024826 109.625862
58 10.943837 108.509453 -11.124846 29.436750 22.796133 1.750508 109.625862
59 10.943837 108.509453 -11.124846 29.718765 22.414108 2.472202 109.625862
60 10.943837 108.509453 -11.124846 29.986160 22.034956 3.189665 109.625862
[front_top_left_part2]
57 -68.606689 132.667755 55.914711 11.079756 0.000004 13.726176 159.480621
58 -68.606689 132.667755 55.914703 11.079756 0.000004 13.726176 159.480606
59 -68.606689 132.667755 55.914700 11.079756 0.000004 13.726176 159.480606
60 -68.606689 132.667755 55.914692 11.079756 0.000004 13.726176 159.480606
[front_top_left_part3]
57 -28.216480 149.656799 49.959614 -25.398531 -6.317425 -71.588623 160.278793
58 -28.216480 149.656799 49.959614 -25.453842 -6.070493 -71.061134 160.278793
59 -28.216480 149.656799 49.959614 -25.506834 -5.826398 -70.548172 160.278793
60 -28.216480 149.656799 49.959614 -25.554783 -5.589004 -70.048462 160.278793
[front_top_right_part2]
57 62.566212 124.344566 58.663303 14.077118 -1.062711 -17.004618 151.054581
58 62.566212 124.344566 58.663307 14.077118 -1.062711 -17.004618 151.054581
59 62.566212 124.344566 58.663315 14.077118 -1.062711 -17.004618 151.054581
60 62.566212 124.344566 58.663319 14.077118 -1.062711 -17.004618 151.054581
[front_top_right_part3]
57 28.216452 149.656952 49.959507 -24.723932 8.709850 76.737122 160.278885
58 28.216452 149.656952 49.959507 -24.723932 8.709850 76.737122 160.278885
59 28.216452 149.656952 49.959507 -24.723932 8.709850 76.737122 160.278885
60 28.216452 149.656952 49.959507 -24.723932 8.709850 76.737122 160.278885
